<svg xmlns="http://www.w3.org/2000/svg" xmlns:xlink="http://www.w3.org/1999/xlink" width="1080" zoomAndPan="magnify" viewBox="0 0 810 809.999993" height="1080" preserveAspectRatio="xMidYMid meet" version="1.0"><defs><clipPath id="2203e273d7"><path d="M 208.621094 314.628906 L 809.398438 314.628906 L 809.398438 656.597656 L 208.621094 656.597656 Z M 208.621094 314.628906 " clip-rule="nonzero"/></clipPath><clipPath id="18212c88db"><path d="M 532.226562 344.402344 L 810 344.402344 L 810 547.515625 L 532.226562 547.515625 Z M 532.226562 344.402344 " clip-rule="nonzero"/></clipPath><clipPath id="3fe977548e"><path d="M 530.453125 344.402344 L 810 344.402344 L 810 546.808594 L 530.453125 546.808594 Z M 530.453125 344.402344 " clip-rule="nonzero"/></clipPath><clipPath id="2e08fdd668"><path d="M 534 344.402344 L 810 344.402344 L 810 542.910156 L 534 542.910156 Z M 534 344.402344 " clip-rule="nonzero"/></clipPath></defs><path fill="#40856b" d="M 457.351562 440.203125 C 453.558594 431.078125 448.933594 422.324219 443.5 414.070312 C 432.6875 397.648438 419.015625 383.320312 403.179688 371.683594 C 401.226562 370.246094 399.238281 368.863281 397.21875 367.523438 C 393.640625 351.957031 378.988281 340.386719 363.058594 338.410156 C 345.914062 336.28125 328.816406 343.71875 316.558594 355.589844 C 316.335938 355.34375 316.136719 355.082031 315.90625 354.839844 C 307.632812 346.101562 296.765625 339.929688 284.703125 338.660156 C 271.335938 337.257812 257.929688 342.542969 247.375 350.464844 C 239.929688 356.054688 233.742188 362.902344 228.105469 370.214844 C 225.710938 369.878906 223.300781 369.636719 220.90625 369.492188 C 200.1875 368.261719 179.277344 374.160156 161.914062 385.394531 C 156.386719 372.273438 147.675781 360.667969 135.441406 352.5 C 113.054688 337.550781 82.003906 337.230469 62.777344 357.570312 C 56.289062 364.4375 51.824219 372.808594 50.007812 381.789062 C 30.609375 387.925781 15.085938 405.25 12.433594 425.867188 C 10.382812 441.824219 15.007812 457.476562 20.691406 472.339844 C 16.324219 476.734375 12.882812 482.109375 10.570312 487.890625 C 0.0078125 514.277344 16.324219 547.429688 41.195312 559.308594 C 54.007812 565.429688 69.761719 569.339844 81.8125 562.183594 C 82.257812 562.683594 81.761719 559.363281 82.246094 559.828125 C 89.359375 566.59375 100.347656 568.613281 109.398438 564.835938 C 125.574219 558.082031 128.019531 539.097656 132.675781 524.339844 C 135.070312 516.753906 138.691406 509.980469 144.410156 504.371094 C 150.199219 498.699219 157.429688 494.488281 164.921875 491.476562 C 182.433594 484.429688 201.558594 482.433594 220.234375 481.136719 C 266.679688 477.910156 313.566406 482.511719 358.464844 494.84375 C 379.757812 500.691406 401.71875 509.472656 424.171875 505.460938 C 441.300781 502.402344 458.769531 490.683594 462.269531 472.652344 C 464.421875 461.5625 461.609375 450.4375 457.351562 440.203125 " fill-opacity="1" fill-rule="nonzero"/><path fill="#2d2745" d="M 24.976562 468.871094 C 23.179688 462.726562 25.265625 455.527344 30.574219 451.734375 C 33.257812 449.816406 36.519531 448.835938 39.804688 448.835938 C 41.410156 448.832031 42.960938 449.0625 44.496094 449.53125 C 46.371094 450.101562 47.964844 451.355469 49.855469 451.855469 C 58.976562 454.273438 58.324219 440.464844 58.898438 435.25 C 59.722656 427.757812 61.449219 419.683594 66.648438 413.914062 C 71.246094 408.804688 79.851562 405.613281 85.878906 410.40625 C 87.125 411.398438 88.835938 411.621094 90.054688 410.40625 C 91.082031 409.375 91.308594 407.226562 90.054688 406.230469 C 83.746094 401.214844 74.914062 401.066406 68.042969 405.144531 C 60.921875 409.375 56.679688 417.164062 54.707031 424.996094 C 53.550781 429.582031 53.042969 434.320312 52.628906 439.023438 C 52.46875 440.835938 52.472656 442.753906 52.074219 444.53125 C 51.640625 446.472656 51.519531 446.253906 49.847656 445.402344 C 42.78125 441.808594 33.902344 442.128906 27.367188 446.792969 C 20.007812 452.046875 16.753906 461.785156 19.28125 470.441406 C 20.34375 474.082031 26.046875 472.535156 24.976562 468.871094 " fill-opacity="1" fill-rule="nonzero"/><path fill="#f28e61" d="M 182.917969 535.324219 L 99.957031 535.324219 L 99.957031 291.171875 L 182.917969 294.730469 L 182.917969 535.324219 " fill-opacity="1" fill-rule="nonzero"/><path fill="#f28e61" d="M 99.957031 291.171875 L 117.734375 269.050781 L 160.203125 269.050781 L 182.917969 294.730469 L 99.957031 291.171875 " fill-opacity="1" fill-rule="nonzero"/><path fill="#f28e61" d="M 160.203125 242.875 L 130.476562 242.875 L 117.734375 240.652344 L 117.734375 269.050781 L 160.203125 269.050781 L 160.203125 242.875 " fill-opacity="1" fill-rule="nonzero"/><path fill="#2d2745" d="M 130.476562 245.246094 L 117.734375 240.652344 L 136.550781 155.96875 C 137.121094 153.40625 140.777344 153.414062 141.335938 155.980469 L 160.203125 242.875 L 130.476562 245.246094 " fill-opacity="1" fill-rule="nonzero"/><path fill="#2d2745" d="M 127.523438 240.652344 C 127.523438 252.621094 127.523438 264.585938 127.523438 276.554688 C 127.523438 280.355469 133.429688 280.359375 133.429688 276.554688 C 133.429688 264.585938 133.429688 252.621094 133.429688 240.652344 C 133.429688 236.855469 127.523438 236.847656 127.523438 240.652344 " fill-opacity="1" fill-rule="nonzero"/><path fill="#2d2745" d="M 117.945312 300.0625 C 117.945312 329.242188 117.945312 358.417969 117.945312 387.59375 C 117.945312 418.027344 117.945312 448.460938 117.945312 478.894531 C 117.945312 494.945312 117.945312 510.992188 117.945312 527.039062 C 117.945312 530.839844 123.847656 530.84375 123.847656 527.039062 C 123.847656 497.863281 123.847656 468.683594 123.847656 439.507812 C 123.847656 409.074219 123.847656 378.640625 123.847656 348.207031 C 123.847656 332.160156 123.847656 316.109375 123.847656 300.0625 C 123.847656 296.261719 117.945312 296.257812 117.945312 300.0625 " fill-opacity="1" fill-rule="nonzero"/><path fill="#2d2745" d="M 132.414062 314.871094 C 132.414062 316.84375 132.414062 318.820312 132.414062 320.796875 C 132.414062 321.550781 132.742188 322.347656 133.277344 322.882812 C 133.789062 323.394531 134.628906 323.78125 135.363281 323.746094 C 136.128906 323.714844 136.917969 323.460938 137.453125 322.882812 C 137.984375 322.304688 138.316406 321.59375 138.316406 320.796875 C 138.316406 318.820312 138.316406 316.84375 138.316406 314.871094 C 138.316406 314.113281 137.988281 313.316406 137.453125 312.78125 C 136.941406 312.269531 136.101562 311.882812 135.363281 311.914062 C 134.601562 311.949219 133.808594 312.199219 133.277344 312.78125 C 132.746094 313.359375 132.414062 314.070312 132.414062 314.871094 " fill-opacity="1" fill-rule="nonzero"/><path fill="#2d2745" d="M 150.042969 313.394531 C 150.042969 315.367188 150.042969 317.34375 150.042969 319.320312 C 150.042969 320.074219 150.371094 320.871094 150.90625 321.40625 C 151.417969 321.917969 152.257812 322.304688 152.992188 322.273438 C 153.757812 322.238281 154.546875 321.988281 155.082031 321.40625 C 155.613281 320.828125 155.945312 320.117188 155.945312 319.320312 C 155.945312 317.34375 155.945312 315.367188 155.945312 313.394531 C 155.945312 312.636719 155.617188 311.839844 155.082031 311.304688 C 154.570312 310.792969 153.730469 310.40625 152.992188 310.441406 C 152.230469 310.472656 151.4375 310.726562 150.90625 311.304688 C 150.375 311.882812 150.042969 312.59375 150.042969 313.394531 " fill-opacity="1" fill-rule="nonzero"/><path fill="#2d2745" d="M 167.671875 311.914062 C 167.671875 313.890625 167.671875 315.867188 167.671875 317.84375 C 167.671875 318.597656 168 319.394531 168.535156 319.929688 C 169.046875 320.441406 169.886719 320.828125 170.625 320.796875 C 171.386719 320.761719 172.179688 320.511719 172.710938 319.929688 C 173.238281 319.351562 173.574219 318.640625 173.574219 317.84375 C 173.574219 315.867188 173.574219 313.890625 173.574219 311.914062 C 173.574219 311.160156 173.246094 310.363281 172.710938 309.828125 C 172.199219 309.316406 171.359375 308.933594 170.625 308.964844 C 169.859375 309 169.066406 309.25 168.535156 309.828125 C 168.003906 310.40625 167.671875 311.117188 167.671875 311.914062 " fill-opacity="1" fill-rule="nonzero"/><path fill="#2d2745" d="M 132.414062 374.28125 C 132.414062 376.253906 132.414062 378.230469 132.414062 380.207031 C 132.414062 380.964844 132.742188 381.757812 133.277344 382.292969 C 133.789062 382.804688 134.628906 383.191406 135.363281 383.15625 C 136.128906 383.125 136.917969 382.871094 137.453125 382.292969 C 137.984375 381.714844 138.316406 381.007812 138.316406 380.207031 C 138.316406 378.230469 138.316406 376.253906 138.316406 374.28125 C 138.316406 373.523438 137.988281 372.726562 137.453125 372.191406 C 136.941406 371.679688 136.101562 371.292969 135.363281 371.328125 C 134.601562 371.363281 133.808594 371.613281 133.277344 372.191406 C 132.746094 372.769531 132.414062 373.480469 132.414062 374.28125 " fill-opacity="1" fill-rule="nonzero"/><path fill="#2d2745" d="M 150.042969 372.804688 C 150.042969 374.777344 150.042969 376.753906 150.042969 378.730469 C 150.042969 379.488281 150.371094 380.28125 150.90625 380.816406 C 151.417969 381.328125 152.257812 381.714844 152.992188 381.683594 C 153.757812 381.648438 154.546875 381.398438 155.082031 380.816406 C 155.613281 380.242188 155.945312 379.53125 155.945312 378.730469 C 155.945312 376.753906 155.945312 374.777344 155.945312 372.804688 C 155.945312 372.046875 155.617188 371.25 155.082031 370.714844 C 154.570312 370.203125 153.730469 369.816406 152.992188 369.851562 C 152.230469 369.886719 151.4375 370.136719 150.90625 370.714844 C 150.375 371.292969 150.042969 372.003906 150.042969 372.804688 " fill-opacity="1" fill-rule="nonzero"/><path fill="#2d2745" d="M 167.671875 371.328125 C 167.671875 373.304688 167.671875 375.277344 167.671875 377.253906 C 167.671875 378.011719 168 378.804688 168.535156 379.339844 C 169.046875 379.855469 169.886719 380.238281 170.625 380.207031 C 171.386719 380.171875 172.179688 379.921875 172.710938 379.339844 C 173.238281 378.761719 173.574219 378.054688 173.574219 377.253906 C 173.574219 375.277344 173.574219 373.304688 173.574219 371.328125 C 173.574219 370.570312 173.246094 369.773438 172.710938 369.238281 C 172.199219 368.726562 171.359375 368.34375 170.625 368.375 C 169.859375 368.410156 169.066406 368.660156 168.535156 369.238281 C 168.003906 369.816406 167.671875 370.527344 167.671875 371.328125 " fill-opacity="1" fill-rule="nonzero"/><path fill="#2d2745" d="M 145.003906 253 C 145.003906 254.972656 145.003906 256.953125 145.003906 258.925781 C 145.003906 259.679688 145.335938 260.480469 145.871094 261.015625 C 146.382812 261.523438 147.222656 261.910156 147.957031 261.878906 C 148.71875 261.84375 149.511719 261.59375 150.042969 261.015625 C 150.574219 260.4375 150.910156 259.722656 150.910156 258.925781 C 150.910156 256.953125 150.910156 254.972656 150.910156 253 C 150.910156 252.242188 150.578125 251.449219 150.042969 250.910156 C 149.53125 250.398438 148.691406 250.015625 147.957031 250.046875 C 147.195312 250.082031 146.402344 250.332031 145.871094 250.910156 C 145.339844 251.488281 145.003906 252.199219 145.003906 253 " fill-opacity="1" fill-rule="nonzero"/><path fill="#f0d2c2" d="M 171.808594 345.640625 C 171.808594 356.03125 163.386719 364.6875 152.992188 364.972656 C 142.601562 365.253906 134.179688 357.0625 134.179688 346.671875 C 134.179688 336.277344 142.601562 327.625 152.992188 327.339844 C 163.386719 327.054688 171.808594 335.25 171.808594 345.640625 " fill-opacity="1" fill-rule="nonzero"/><path fill="#2d2745" d="M 121.367188 401.355469 C 140.921875 399.960938 160.472656 398.566406 180.03125 397.171875 C 183.796875 396.90625 183.828125 390.996094 180.03125 391.269531 C 160.472656 392.664062 140.921875 394.054688 121.367188 395.453125 C 117.597656 395.722656 117.566406 401.625 121.367188 401.355469 " fill-opacity="1" fill-rule="nonzero"/><path fill="#2d2745" d="M 121.367188 474.703125 C 140.921875 473.308594 160.472656 471.914062 180.03125 470.519531 C 183.796875 470.25 183.828125 464.34375 180.03125 464.613281 C 160.472656 466.007812 140.921875 467.402344 121.367188 468.796875 C 117.597656 469.066406 117.566406 474.972656 121.367188 474.703125 " fill-opacity="1" fill-rule="nonzero"/><path fill="#2d2745" d="M 102.441406 398.15625 C 108.390625 399.1875 114.34375 400.21875 120.292969 401.25 C 121.808594 401.511719 123.546875 400.847656 123.925781 399.1875 C 124.25 397.753906 123.488281 395.839844 121.863281 395.558594 C 115.914062 394.527344 109.960938 393.496094 104.011719 392.460938 C 102.496094 392.199219 100.757812 392.867188 100.378906 394.523438 C 100.054688 395.957031 100.816406 397.875 102.441406 398.15625 " fill-opacity="1" fill-rule="nonzero"/><path fill="#2d2745" d="M 102.441406 472.503906 C 108.390625 473.535156 114.34375 474.566406 120.292969 475.597656 C 121.808594 475.863281 123.546875 475.195312 123.925781 473.539062 C 124.25 472.101562 123.488281 470.1875 121.863281 469.90625 C 115.914062 468.875 109.960938 467.84375 104.011719 466.808594 C 102.496094 466.546875 100.757812 467.214844 100.378906 468.871094 C 100.054688 470.308594 100.816406 472.222656 102.441406 472.503906 " fill-opacity="1" fill-rule="nonzero"/><path fill="#2d2745" d="M 117.734375 269.050781 L 130.476562 272.328125 L 160.203125 269.050781 L 182.917969 294.730469 L 120.894531 300.785156 L 99.957031 291.171875 L 117.734375 269.050781 " fill-opacity="1" fill-rule="nonzero"/><path fill="#f5e3d9" d="M 471.007812 630.875 L 241.601562 630.875 L 241.601562 577.792969 L 471.007812 577.792969 C 471.007812 577.792969 467.078125 594.578125 467.078125 602.796875 C 467.078125 611.011719 471.007812 630.875 471.007812 630.875 " fill-opacity="1" fill-rule="nonzero"/><path fill="#2d2745" d="M 470.230469 630.875 L 251.839844 630.875 C 246.707031 615.601562 248.160156 589.25 252.542969 577.792969 L 470.230469 577.792969 C 480.214844 577.792969 480.769531 566.972656 471.882812 565.773438 L 471.960938 565.773438 L 209.199219 488.535156 L 62.085938 488.574219 L 62.132812 488.59375 C 60.148438 488.617188 58.410156 489.5 57.492188 491.644531 C 51.125 506.59375 50.769531 541.402344 58.953125 560.671875 C 60.351562 563.960938 62.621094 565.929688 64.945312 566.753906 L 245.300781 642.492188 L 245.300781 642.484375 C 246.378906 642.882812 247.46875 643.019531 248.496094 642.941406 C 248.839844 642.96875 249.167969 643.015625 249.535156 643.015625 L 470.230469 643.015625 C 480.800781 643.015625 480.820312 630.875 470.230469 630.875 " fill-opacity="1" fill-rule="nonzero"/><path fill="#645a8c" d="M 85.714844 511.171875 C 82.140625 518.089844 81.03125 526.203125 80.515625 533.878906 C 79.894531 543.074219 80.414062 552.429688 82.179688 561.476562 C 83.085938 566.105469 84.410156 570.609375 86.332031 574.921875 C 86.984375 576.378906 89.105469 576.722656 90.371094 575.980469 C 91.871094 575.105469 92.082031 573.402344 91.429688 571.941406 C 87.273438 562.605469 86.230469 551.714844 86.183594 541.605469 C 86.140625 532.632812 86.6875 522.140625 90.8125 514.152344 C 92.554688 510.78125 87.460938 507.789062 85.714844 511.171875 " fill-opacity="1" fill-rule="nonzero"/><path fill="#645a8c" d="M 204.605469 561.0625 C 201.03125 567.980469 199.921875 576.089844 199.40625 583.769531 C 198.785156 592.960938 199.304688 602.3125 201.070312 611.363281 C 201.972656 615.992188 203.300781 620.5 205.222656 624.808594 C 205.871094 626.265625 207.992188 626.609375 209.261719 625.867188 C 210.761719 624.988281 210.972656 623.292969 210.320312 621.828125 C 206.160156 612.496094 205.121094 601.597656 205.070312 591.496094 C 205.027344 582.515625 205.578125 572.023438 209.703125 564.039062 C 211.445312 560.667969 206.351562 557.679688 204.605469 561.0625 " fill-opacity="1" fill-rule="nonzero"/><path fill="#645a8c" d="M 236.785156 574.441406 C 233.210938 581.363281 232.101562 589.472656 231.582031 597.148438 C 230.964844 606.34375 231.484375 615.699219 233.25 624.746094 C 234.152344 629.375 235.480469 633.878906 237.402344 638.191406 C 238.050781 639.648438 240.171875 639.992188 241.441406 639.25 C 242.941406 638.375 243.152344 636.671875 242.5 635.210938 C 238.339844 625.878906 237.300781 614.984375 237.25 604.878906 C 237.207031 595.902344 237.757812 585.410156 241.882812 577.425781 C 243.625 574.050781 238.53125 571.0625 236.785156 574.441406 " fill-opacity="1" fill-rule="nonzero"/><path fill="#cf9f84" d="M 407.882812 543.605469 L 230.410156 543.605469 L 230.410156 502.539062 L 407.882812 502.539062 C 407.882812 502.539062 404.84375 515.527344 404.84375 521.882812 C 404.84375 528.238281 407.882812 543.605469 407.882812 543.605469 " fill-opacity="1" fill-rule="nonzero"/><path fill="#f5e3d9" d="M 407.277344 543.605469 L 238.339844 543.605469 C 234.359375 531.777344 235.488281 511.386719 238.890625 502.539062 L 407.277344 502.539062 C 415.007812 502.539062 415.433594 494.167969 408.558594 493.238281 L 408.621094 493.238281 L 255.734375 433.488281 L 91.53125 433.515625 L 91.566406 433.53125 C 90.03125 433.546875 88.6875 434.230469 87.980469 435.890625 C 83.050781 447.457031 82.777344 474.386719 89.109375 489.289062 C 90.1875 491.839844 91.945312 493.359375 93.742188 494 L 233.269531 552.589844 L 233.269531 552.585938 C 234.105469 552.890625 234.949219 552.996094 235.742188 552.9375 C 236.007812 552.957031 236.261719 552.996094 236.546875 552.996094 L 407.277344 552.996094 C 415.457031 552.996094 415.472656 543.605469 407.277344 543.605469 " fill-opacity="1" fill-rule="nonzero"/><path fill="#2d2745" d="M 300.222656 466.210938 L 191.6875 466.210938 C 186.527344 466.210938 181.421875 465.21875 176.640625 463.285156 L 142.671875 449.5625 C 140.410156 448.648438 141.0625 445.285156 143.503906 445.285156 L 259.671875 445.285156 L 300.222656 466.210938 " fill-opacity="1" fill-rule="nonzero"/><path fill="#2d2745" d="M 153.550781 466.378906 C 149.722656 473.679688 148.707031 482.511719 148.316406 490.625 C 147.898438 499.347656 148.320312 508.707031 151.304688 516.988281 C 152.582031 520.539062 158.289062 519.007812 156.996094 515.421875 C 154.230469 507.742188 153.855469 499.238281 154.195312 491.15625 C 154.503906 483.957031 155.289062 475.765625 158.648438 469.355469 C 160.414062 465.996094 155.320312 463.007812 153.550781 466.378906 " fill-opacity="1" fill-rule="nonzero"/><path fill="#2d2745" d="M 183.800781 479.066406 C 179.96875 486.367188 178.957031 495.203125 178.566406 503.316406 C 178.148438 512.039062 178.566406 521.394531 181.554688 529.683594 C 182.832031 533.226562 188.539062 531.699219 187.246094 528.113281 C 184.476562 520.429688 184.101562 511.929688 184.445312 503.847656 C 184.753906 496.648438 185.539062 488.457031 188.898438 482.046875 C 190.660156 478.683594 185.570312 475.695312 183.800781 479.066406 " fill-opacity="1" fill-rule="nonzero"/><path fill="#2d2745" d="M 225.851562 497.871094 C 222.023438 505.175781 221.007812 514.007812 220.617188 522.121094 C 220.199219 530.84375 220.617188 540.199219 223.605469 548.488281 C 224.882812 552.035156 230.589844 550.503906 229.296875 546.917969 C 226.53125 539.238281 226.152344 530.734375 226.496094 522.652344 C 226.804688 515.453125 227.589844 507.261719 230.949219 500.851562 C 232.714844 497.492188 227.621094 494.503906 225.851562 497.871094 " fill-opacity="1" fill-rule="nonzero"/><path fill="#2d2745" d="M 100.71875 445.421875 C 128.59375 457.335938 156.464844 469.246094 184.339844 481.160156 C 192.871094 484.808594 201.402344 488.453125 209.933594 492.097656 C 211.398438 492.726562 213.097656 492.535156 213.972656 491.039062 C 214.699219 489.796875 214.390625 487.628906 212.914062 487 C 185.042969 475.089844 157.167969 463.175781 129.292969 451.261719 C 120.761719 447.617188 112.230469 443.96875 103.699219 440.324219 C 102.234375 439.699219 100.535156 439.886719 99.660156 441.382812 C 98.933594 442.625 99.246094 444.792969 100.71875 445.421875 " fill-opacity="1" fill-rule="nonzero"/><path fill="#40856b" d="M 560.6875 336.25 L 535.433594 352.175781 L 527.09375 344.367188 L 495.445312 264.933594 C 494.722656 263.117188 495.84375 261.074219 497.769531 260.722656 C 507.726562 258.882812 517.320312 257.527344 526.523438 256.578125 C 527.90625 256.433594 529.207031 257.238281 529.71875 258.527344 L 560.6875 336.25 " fill-opacity="1" fill-rule="nonzero"/><path fill="#ffbb5c" d="M 588.851562 329.796875 L 559.417969 348.351562 L 528.300781 270.273438 C 527.441406 268.117188 528.871094 265.722656 531.179688 265.488281 C 541.316406 264.460938 550.976562 263.933594 560.125 263.785156 C 561.582031 263.761719 562.890625 264.648438 563.425781 265.996094 L 588.851562 329.796875 " fill-opacity="1" fill-rule="nonzero"/><g clip-path="url(#2203e273d7)"><path fill="#944b32" d="M 797.039062 656.597656 L 347.335938 656.597656 C 342.40625 656.597656 337.972656 653.597656 336.148438 649.011719 L 209.550781 331.375 C 206.398438 323.464844 212.226562 314.871094 220.742188 314.871094 L 670.441406 314.871094 C 675.375 314.871094 679.804688 317.875 681.628906 322.453125 L 808.226562 640.09375 C 811.378906 648.003906 805.550781 656.597656 797.039062 656.597656 " fill-opacity="1" fill-rule="nonzero"/></g><path fill="#f0d2c2" d="M 798.183594 643.796875 L 352.417969 643.796875 L 226.570312 328.035156 L 675.308594 325.546875 L 798.183594 643.796875 " fill-opacity="1" fill-rule="nonzero"/><path fill="#f0d2c2" d="M 232.917969 306.226562 L 226.527344 323.046875 C 225.917969 324.65625 225.933594 326.433594 226.570312 328.035156 L 352.417969 643.796875 L 798.253906 643.832031 C 800.519531 643.835938 802.472656 642.238281 802.921875 640.015625 L 804.554688 618.277344 L 232.917969 306.226562 " fill-opacity="1" fill-rule="nonzero"/><path fill="#f0d2c2" d="M 802.511719 619.929688 L 363.605469 634.125 L 232.917969 306.226562 L 467.132812 307.871094 L 675.148438 297.34375 L 804.605469 616.839844 C 805.195312 618.324219 804.105469 619.929688 802.511719 619.929688 " fill-opacity="1" fill-rule="nonzero"/><path fill="#6699ff" d="M 459.019531 317.28125 L 391.242188 305.515625 L 374.664062 263.894531 C 373.90625 262 375.421875 259.980469 377.453125 260.152344 C 403.503906 262.394531 423.882812 266.90625 437.214844 270.636719 C 439.507812 271.277344 441.363281 272.960938 442.242188 275.171875 L 459.019531 317.28125 " fill-opacity="1" fill-rule="nonzero"/><path fill="#f0d2c2" d="M 463.871094 306.226562 C 463.871094 306.226562 369.140625 266.183594 232.917969 306.222656 L 472.574219 347.789062 L 463.871094 306.226562 " fill-opacity="1" fill-rule="nonzero"/><path fill="#f28e61" d="M 292.609375 323.363281 C 290.753906 316.328125 283.398438 310.328125 275.296875 310.429688 C 254.015625 310.691406 260.132812 344.414062 283.078125 338.253906 C 289.804688 336.449219 294.375 330.046875 292.609375 323.363281 " fill-opacity="1" fill-rule="nonzero"/><path fill="#f0d2c2" d="M 675.148438 297.34375 C 675.148438 297.34375 579.476562 274.214844 463.871094 306.226562 L 543.210938 344.917969 L 675.148438 297.34375 " fill-opacity="1" fill-rule="nonzero"/><path fill="#2d2745" d="M 597.980469 629.367188 C 594.367188 627.839844 590.636719 626.585938 586.902344 625.40625 C 577.101562 622.300781 567.09375 619.863281 557.007812 617.882812 C 541.488281 614.835938 525.738281 612.890625 509.953125 611.90625 C 489.46875 610.632812 468.886719 611.019531 448.457031 612.921875 C 423.503906 615.242188 398.765625 619.765625 374.578125 626.296875 C 371.292969 627.183594 368.019531 628.109375 364.753906 629.066406 C 361.113281 630.132812 362.664062 635.832031 366.320312 634.761719 C 390.492188 627.675781 415.238281 622.496094 440.277344 619.664062 C 461.039062 617.324219 481.988281 616.53125 502.863281 617.4375 C 518.902344 618.132812 534.902344 619.820312 550.699219 622.683594 C 561.441406 624.628906 572.101562 627.082031 582.550781 630.234375 C 586.933594 631.5625 591.238281 633.054688 595.515625 634.683594 C 595.796875 634.792969 596.289062 635.011719 595 634.464844 C 596.46875 635.085938 598.164062 634.90625 599.039062 633.40625 C 599.765625 632.167969 599.457031 629.988281 597.980469 629.367188 " fill-opacity="1" fill-rule="nonzero"/><path fill="#2d2745" d="M 447.746094 327.738281 C 414.535156 320.355469 380.183594 318.109375 346.25 320.027344 C 333.425781 320.75 320.644531 322.105469 307.933594 323.976562 C 306.355469 324.207031 305.488281 326.207031 305.875 327.605469 C 306.339844 329.300781 307.921875 329.902344 309.503906 329.667969 C 347.449219 324.085938 386.410156 323.566406 424.371094 329.355469 C 431.679688 330.472656 438.957031 331.824219 446.175781 333.429688 C 449.878906 334.253906 451.460938 328.5625 447.746094 327.738281 " fill-opacity="1" fill-rule="nonzero"/><path fill="#2d2745" d="M 348.382812 483.238281 C 373.417969 478.253906 398.867188 475.460938 424.402344 475.144531 C 444.144531 474.898438 463.949219 476.082031 483.488281 478.988281 C 491.804688 480.226562 500.074219 481.765625 508.273438 483.636719 C 511.972656 484.484375 513.550781 478.789062 509.84375 477.945312 C 493.570312 474.226562 476.996094 471.804688 460.363281 470.453125 C 437.730469 468.617188 414.941406 468.839844 392.335938 470.910156 C 377.058594 472.3125 361.859375 474.550781 346.816406 477.546875 C 343.089844 478.285156 344.667969 483.980469 348.382812 483.238281 " fill-opacity="1" fill-rule="nonzero"/><path fill="#2d2745" d="M 360.296875 513.144531 C 385.363281 508.171875 410.847656 505.394531 436.40625 505.105469 C 456.15625 504.878906 475.960938 506.085938 495.5 509.011719 C 503.804688 510.261719 512.0625 511.808594 520.242188 513.691406 C 523.941406 514.542969 525.519531 508.851562 521.8125 507.996094 C 505.558594 504.261719 489.003906 501.820312 472.386719 500.453125 C 449.742188 498.589844 426.9375 498.792969 404.3125 500.84375 C 389.015625 502.234375 373.792969 504.460938 358.726562 507.453125 C 355.003906 508.191406 356.578125 513.882812 360.296875 513.144531 " fill-opacity="1" fill-rule="nonzero"/><path fill="#2d2745" d="M 372.234375 543.082031 C 397.34375 538.109375 422.867188 535.339844 448.46875 535.070312 C 468.148438 534.863281 487.890625 536.074219 507.367188 539 C 515.699219 540.25 523.984375 541.808594 532.199219 543.703125 C 535.898438 544.554688 537.476562 538.859375 533.769531 538.007812 C 517.511719 534.261719 500.949219 531.8125 484.328125 530.4375 C 461.648438 528.5625 438.804688 528.753906 416.148438 530.804688 C 400.886719 532.191406 385.703125 534.414062 370.664062 537.386719 C 366.945312 538.125 368.519531 543.816406 372.234375 543.082031 " fill-opacity="1" fill-rule="nonzero"/><path fill="#2d2745" d="M 383.824219 572.144531 C 408.886719 567.171875 434.367188 564.398438 459.929688 564.101562 C 479.675781 563.878906 499.480469 565.082031 519.015625 568.007812 C 527.316406 569.253906 535.574219 570.796875 543.757812 572.675781 C 547.453125 573.527344 549.035156 567.835938 545.328125 566.984375 C 529.070312 563.25 512.519531 560.816406 495.902344 559.453125 C 473.261719 557.589844 450.457031 557.792969 427.835938 559.84375 C 412.539062 561.234375 397.320312 563.464844 382.253906 566.453125 C 378.53125 567.191406 380.105469 572.882812 383.824219 572.144531 " fill-opacity="1" fill-rule="nonzero"/><path fill="#2d2745" d="M 511.730469 332.34375 C 546.777344 324.359375 582.835938 321.914062 618.699219 323.652344 C 628.710938 324.136719 638.707031 324.945312 648.671875 326.027344 C 650.261719 326.199219 651.625 324.546875 651.625 323.074219 C 651.625 321.335938 650.265625 320.296875 648.671875 320.121094 C 612.789062 316.234375 576.523438 316.054688 540.738281 321.042969 C 530.472656 322.476562 520.269531 324.347656 510.160156 326.652344 C 506.460938 327.496094 508.027344 333.1875 511.730469 332.34375 " fill-opacity="1" fill-rule="nonzero"/><path fill="#2d2745" d="M 802.933594 615.421875 C 788.832031 613.199219 774.476562 612.164062 760.238281 611.433594 C 727.140625 609.742188 693.832031 610.757812 660.972656 615.132812 C 638.890625 618.074219 617.015625 622.53125 595.707031 629.070312 C 592.082031 630.179688 593.628906 635.878906 597.277344 634.761719 C 633.503906 623.652344 671.332031 618.417969 709.136719 616.980469 C 735.359375 615.992188 761.707031 616.742188 787.8125 619.453125 C 791.3125 619.816406 794.808594 620.230469 798.300781 620.679688 C 799.183594 620.792969 797.632812 620.582031 798.554688 620.714844 C 798.796875 620.746094 799.035156 620.777344 799.273438 620.816406 C 799.648438 620.863281 800.027344 620.917969 800.402344 620.972656 C 800.71875 621.019531 801.042969 621.066406 801.363281 621.121094 C 802.9375 621.367188 804.539062 620.714844 804.996094 619.054688 C 805.382812 617.652344 804.515625 615.675781 802.933594 615.421875 " fill-opacity="1" fill-rule="nonzero"/><path fill="#2d2745" d="M 232.488281 308.945312 C 240.09375 327.953125 247.703125 346.960938 255.308594 365.96875 C 264.070312 387.863281 272.832031 409.753906 281.59375 431.648438 C 290.863281 454.808594 300.128906 477.972656 309.398438 501.128906 C 318.289062 523.34375 327.179688 545.558594 336.070312 567.773438 C 343.835938 587.1875 351.605469 606.597656 359.375 626.003906 C 360.214844 628.113281 361.058594 630.21875 361.902344 632.328125 C 362.496094 633.804688 363.875 634.84375 365.53125 634.390625 C 366.941406 634.003906 368.191406 632.246094 367.597656 630.757812 C 359.988281 611.75 352.382812 592.738281 344.777344 573.734375 C 336.015625 551.839844 327.253906 529.945312 318.492188 508.054688 C 309.222656 484.894531 299.953125 461.734375 290.683594 438.570312 C 281.796875 416.355469 272.90625 394.140625 264.015625 371.925781 C 256.246094 352.519531 248.480469 333.109375 240.710938 313.699219 C 239.867188 311.589844 239.023438 309.484375 238.179688 307.375 C 237.589844 305.898438 236.210938 304.855469 234.550781 305.3125 C 233.144531 305.699219 231.894531 307.457031 232.488281 308.945312 " fill-opacity="1" fill-rule="nonzero"/><path fill="#2d2745" d="M 464.289062 308.65625 C 471.871094 327.609375 479.457031 346.5625 487.042969 365.519531 C 495.847656 387.519531 504.648438 409.515625 513.453125 431.519531 C 522.660156 454.523438 531.867188 477.527344 541.074219 500.53125 C 549.972656 522.769531 558.871094 545.011719 567.777344 567.25 C 575.550781 586.691406 583.332031 606.125 591.109375 625.558594 C 591.953125 627.671875 592.800781 629.78125 593.644531 631.890625 C 594.234375 633.375 595.613281 634.414062 597.277344 633.957031 C 598.679688 633.570312 599.929688 631.8125 599.335938 630.324219 C 591.75 611.367188 584.164062 592.414062 576.582031 573.460938 C 567.777344 551.460938 558.972656 529.460938 550.167969 507.460938 C 540.960938 484.457031 531.753906 461.453125 522.550781 438.449219 C 513.648438 416.207031 504.75 393.96875 495.847656 371.726562 C 488.070312 352.289062 480.289062 332.855469 472.515625 313.417969 C 471.667969 311.308594 470.824219 309.195312 469.980469 307.085938 C 469.386719 305.605469 468.007812 304.566406 466.347656 305.023438 C 464.945312 305.410156 463.691406 307.167969 464.289062 308.65625 " fill-opacity="1" fill-rule="nonzero"/><path fill="#2d2745" d="M 356.054688 643.847656 C 359.648438 640.617188 363.242188 637.394531 366.835938 634.164062 C 367.988281 633.128906 367.96875 631.03125 366.835938 629.988281 C 365.609375 628.859375 363.890625 628.886719 362.664062 629.988281 C 359.070312 633.21875 355.472656 636.445312 351.878906 639.671875 C 350.726562 640.707031 350.746094 642.808594 351.878906 643.847656 C 353.109375 644.976562 354.824219 644.949219 356.054688 643.847656 " fill-opacity="1" fill-rule="nonzero"/><path fill="#2d2745" d="M 576.980469 643.46875 C 582.109375 640.375 587.792969 636.601562 593.964844 636.296875 C 598.976562 636.050781 603.503906 638.339844 606.386719 642.441406 C 607.304688 643.742188 608.96875 644.351562 610.429688 643.5 C 611.714844 642.746094 612.410156 640.769531 611.484375 639.460938 C 607.597656 633.9375 601.722656 630.382812 594.863281 630.371094 C 587.226562 630.359375 580.324219 634.558594 574 638.367188 C 570.75 640.328125 573.714844 645.433594 576.980469 643.46875 " fill-opacity="1" fill-rule="nonzero"/><path fill="#ff624a" d="M 486.925781 419.230469 C 483.121094 415.464844 477.9375 413.957031 472.980469 412.902344 C 470.941406 410.925781 469.945312 408.007812 469.09375 405.335938 C 468.792969 404.386719 468.519531 403.429688 468.257812 402.472656 C 473.042969 400.4375 476.332031 395.683594 477.140625 390.34375 C 478.128906 383.839844 475.972656 377.191406 473.167969 371.035156 C 470.449219 365.089844 466.617188 360.71875 460.125 359.117188 C 453.925781 357.585938 438.675781 352.070312 390.972656 350.25 C 378.257812 349.765625 365.554688 349.710938 353.019531 350.78125 C 346.71875 351.316406 340.453125 352.082031 334.242188 353.054688 C 328.554688 353.945312 322.472656 354.648438 317.1875 356.769531 C 311.800781 358.933594 307.757812 362.804688 306.488281 368.664062 C 305.582031 372.855469 306.265625 377.582031 308.417969 381.609375 C 308.964844 383.886719 309.871094 386.125 310.753906 388.304688 C 312.351562 392.253906 313.949219 396.199219 315.558594 400.144531 C 318.683594 407.800781 321.847656 415.441406 325.125 423.042969 C 326.761719 426.84375 328.429688 430.636719 330.132812 434.414062 C 331.640625 437.75 333.074219 441.191406 335 444.347656 C 338.867188 450.683594 346.109375 453.164062 354.382812 450.992188 C 390.613281 440.210938 430.261719 445.472656 468.339844 444.421875 C 476.882812 444.1875 494.664062 446.324219 493.554688 437.589844 C 493.332031 435.820312 490.90625 423.171875 486.925781 419.230469 " fill-opacity="1" fill-rule="nonzero"/><path fill="#2d2745" d="M 379.488281 447.136719 C 379.929688 451.851562 376.484375 455.675781 371.792969 455.675781 C 367.101562 455.675781 362.929688 451.851562 362.488281 447.136719 C 362.046875 442.417969 365.488281 438.59375 370.183594 438.59375 C 374.875 438.59375 379.042969 442.417969 379.488281 447.136719 " fill-opacity="1" fill-rule="nonzero"/><path fill="#2d2745" d="M 469.695312 443.742188 C 470.136719 448.460938 466.695312 452.28125 462 452.28125 C 457.304688 452.28125 453.140625 448.460938 452.695312 443.742188 C 452.25 439.027344 455.695312 435.203125 460.390625 435.203125 C 465.085938 435.203125 469.253906 439.027344 469.695312 443.742188 " fill-opacity="1" fill-rule="nonzero"/><path fill="#f0d2c2" d="M 354.851562 428.097656 C 387.945312 422.5 421.835938 423.675781 455.085938 427.167969 C 466.410156 428.359375 466.324219 410.636719 455.085938 409.457031 C 420.109375 405.78125 384.921875 405.136719 350.144531 411.015625 C 338.929688 412.914062 343.683594 429.984375 354.851562 428.097656 " fill-opacity="1" fill-rule="nonzero"/><path fill="#f0d2c2" d="M 336.644531 385.945312 C 374.09375 379.621094 413.785156 381.835938 451.273438 386.691406 C 462.546875 388.148438 462.441406 370.421875 451.273438 368.976562 C 412.019531 363.894531 371.109375 362.25 331.9375 368.867188 C 320.722656 370.757812 325.476562 387.832031 336.644531 385.945312 " fill-opacity="1" fill-rule="nonzero"/><path fill="#ff624a" d="M 349.757812 363.566406 C 356.839844 382.769531 363.917969 401.976562 371 421.179688 C 372.710938 425.824219 374.421875 430.464844 376.132812 435.105469 C 377.4375 438.640625 383.144531 437.113281 381.828125 433.539062 C 374.75 414.332031 367.667969 395.128906 360.585938 375.925781 C 358.875 371.28125 357.164062 366.640625 355.453125 361.996094 C 354.148438 358.460938 348.441406 359.992188 349.757812 363.566406 " fill-opacity="1" fill-rule="nonzero"/><path fill="#ff624a" d="M 384.953125 359.570312 C 392.035156 378.777344 399.113281 397.980469 406.195312 417.1875 C 407.90625 421.828125 409.617188 426.46875 411.332031 431.113281 C 412.628906 434.648438 418.339844 433.117188 417.023438 429.542969 C 409.941406 410.339844 402.863281 391.136719 395.78125 371.929688 C 394.070312 367.289062 392.355469 362.644531 390.644531 358.003906 C 389.34375 354.46875 383.632812 355.996094 384.953125 359.570312 " fill-opacity="1" fill-rule="nonzero"/><path fill="#ff624a" d="M 422.433594 361.972656 C 429.515625 381.175781 436.597656 400.378906 443.675781 419.582031 C 445.386719 424.226562 447.097656 428.871094 448.8125 433.511719 C 450.117188 437.046875 455.824219 435.519531 454.503906 431.941406 C 447.425781 412.738281 440.34375 393.53125 433.261719 374.328125 C 431.550781 369.6875 429.839844 365.042969 428.128906 360.402344 C 426.824219 356.867188 421.117188 358.394531 422.433594 361.972656 " fill-opacity="1" fill-rule="nonzero"/><path fill="#2d2745" d="M 329.3125 404.6875 C 346.570312 399.886719 364.71875 398.246094 382.550781 397.414062 C 401.210938 396.542969 420.03125 396.734375 438.625 398.65625 C 446.054688 399.425781 453.554688 400.445312 460.742188 402.539062 C 464.402344 403.605469 465.960938 397.90625 462.3125 396.84375 C 455.78125 394.945312 448.984375 393.960938 442.238281 393.15625 C 433.496094 392.113281 424.699219 391.558594 415.90625 391.269531 C 396.222656 390.625 376.40625 391.246094 356.847656 393.597656 C 347.054688 394.777344 337.257812 396.347656 327.742188 398.992188 C 324.089844 400.011719 325.640625 405.707031 329.3125 404.6875 " fill-opacity="1" fill-rule="nonzero"/><path fill="#6699ff" d="M 798.640625 577.300781 L 722.765625 393.261719 C 721.71875 390.105469 719.039062 387.566406 714.714844 387.566406 L 530.464844 387.566406 C 523.160156 387.566406 520.535156 394.839844 522.59375 400.066406 L 522.589844 400.066406 L 598.898438 585.179688 C 600.074219 588.054688 602.675781 590.289062 606.726562 590.289062 L 790.976562 590.289062 C 798.511719 590.289062 801.066406 582.546875 798.640625 577.300781 " fill-opacity="1" fill-rule="nonzero"/><path fill="#6699ff" d="M 522.007812 397.847656 C 522.007812 397.847656 514.902344 369.464844 534.65625 347.230469 C 534.65625 347.230469 557.527344 367.882812 557.769531 368.253906 C 558.015625 368.621094 549.53125 400.605469 549.53125 400.605469 L 522.007812 397.847656 " fill-opacity="1" fill-rule="nonzero"/><path fill="#f5e3d9" d="M 613.519531 582.257812 C 613.519531 582.257812 606.414062 553.875 626.167969 531.640625 L 801.566406 531.640625 C 787.941406 551.496094 788.269531 582.257812 788.269531 582.257812 L 613.519531 582.257812 " fill-opacity="1" fill-rule="nonzero"/><g clip-path="url(#18212c88db)"><path fill="#6699ff" d="M 809.136719 534.308594 L 733.261719 350.273438 C 732.214844 347.117188 729.535156 344.574219 725.210938 344.574219 L 540.960938 344.574219 C 533.65625 344.574219 531.035156 351.847656 533.089844 357.074219 L 533.085938 357.074219 L 609.394531 542.1875 C 610.566406 545.0625 613.167969 547.296875 617.222656 547.296875 L 801.472656 547.296875 C 809.007812 547.296875 811.5625 539.554688 809.136719 534.308594 " fill-opacity="1" fill-rule="nonzero"/></g><path fill="#f0d2c2" d="M 735.035156 354.589844 C 697.414062 418.828125 659.792969 483.054688 622.152344 547.296875 L 617.222656 547.296875 C 616.589844 547.296875 615.984375 547.238281 615.421875 547.132812 C 613.195312 546.738281 611.523438 545.570312 610.417969 544.003906 C 610.003906 543.445312 609.667969 542.835938 609.402344 542.1875 L 607.421875 537.40625 C 645.074219 473.136719 682.714844 408.851562 720.367188 344.578125 L 725.207031 344.578125 C 725.882812 344.578125 726.519531 344.640625 727.109375 344.773438 C 729.320312 345.199219 730.976562 346.382812 732.082031 347.929688 C 732.585938 348.65625 732.984375 349.4375 733.261719 350.277344 L 735.035156 354.589844 " fill-opacity="1" fill-rule="nonzero"/><path fill="#ff624a" d="M 732.082031 347.929688 C 725.105469 359.859375 718.109375 371.800781 711.125 383.726562 C 692.675781 415.226562 674.222656 446.714844 655.789062 478.214844 C 642.328125 501.183594 628.886719 524.148438 615.421875 547.132812 C 613.195312 546.738281 611.523438 545.570312 610.417969 544.003906 C 615.820312 534.78125 621.222656 525.554688 626.621094 516.3125 C 645.074219 484.828125 663.523438 453.328125 681.957031 421.839844 C 697 396.140625 712.054688 370.457031 727.109375 344.773438 C 729.320312 345.199219 730.976562 346.382812 732.082031 347.929688 " fill-opacity="1" fill-rule="nonzero"/><g clip-path="url(#3fe977548e)"><path fill="#f0d2c2" d="M 809.058594 542.707031 C 808.183594 544.523438 806.710938 546.027344 804.617188 546.765625 C 791.09375 537.167969 777.589844 527.574219 764.082031 517.980469 C 686.859375 463.15625 609.636719 408.320312 532.414062 353.496094 C 531.835938 353.082031 531.261719 352.683594 530.683594 352.273438 C 531.777344 350.707031 532.972656 349.15625 534.300781 347.636719 C 534.40625 347.503906 534.523438 347.371094 534.65625 347.238281 C 535.953125 345.792969 537.800781 344.773438 540.222656 344.609375 C 540.457031 344.59375 540.707031 344.578125 540.960938 344.578125 L 550.328125 344.578125 C 564.410156 354.589844 578.523438 364.597656 592.617188 374.605469 C 663.628906 425.027344 734.636719 475.4375 805.648438 525.863281 L 809.132812 534.304688 C 809.367188 534.824219 809.5625 535.382812 809.691406 535.945312 C 810.285156 538.171875 810.074219 540.640625 809.058594 542.707031 " fill-opacity="1" fill-rule="nonzero"/></g><g clip-path="url(#2e08fdd668)"><path fill="#ff624a" d="M 809.058594 542.707031 C 795.214844 532.875 781.382812 523.042969 767.539062 513.226562 C 746.917969 498.585938 726.300781 483.941406 705.664062 469.296875 C 683.863281 453.8125 662.050781 438.328125 640.25 422.84375 C 619.9375 408.4375 599.644531 394.015625 579.347656 379.609375 C 564.339844 368.953125 549.328125 358.292969 534.316406 347.636719 L 534.300781 347.636719 C 534.40625 347.503906 534.523438 347.371094 534.65625 347.238281 C 535.953125 345.792969 537.800781 344.773438 540.222656 344.609375 C 556.53125 356.195312 572.839844 367.785156 589.148438 379.359375 C 609.785156 394 630.402344 408.644531 651.023438 423.289062 C 672.839844 438.773438 694.636719 454.253906 716.453125 469.742188 C 736.75 484.148438 757.058594 498.570312 777.351562 512.976562 C 788.125 520.621094 798.917969 528.28125 809.691406 535.945312 C 810.285156 538.171875 810.074219 540.640625 809.058594 542.707031 " fill-opacity="1" fill-rule="nonzero"/></g><path fill="#f0d2c2" d="M 762.964844 422.324219 L 560 422.324219 L 558.984375 419.863281 C 558.308594 418.222656 559.511719 416.421875 561.289062 416.421875 L 760.535156 416.421875 L 762.964844 422.324219 " fill-opacity="1" fill-rule="nonzero"/><path fill="#f0d2c2" d="M 782.066406 468.652344 L 580.230469 468.652344 C 579.53125 468.652344 578.902344 468.226562 578.636719 467.582031 L 576.640625 462.746094 L 779.632812 462.746094 L 782.066406 468.652344 " fill-opacity="1" fill-rule="nonzero"/><path fill="#f0d2c2" d="M 695.910156 547.296875 L 689.5625 547.296875 C 686.902344 540.875 684.261719 534.453125 681.617188 528.035156 C 674.183594 510.011719 666.742188 491.984375 659.304688 473.949219 C 650.714844 453.105469 642.109375 432.246094 633.503906 411.40625 C 626.390625 394.179688 619.289062 376.9375 612.171875 359.710938 C 610.09375 354.664062 608.011719 349.628906 605.929688 344.578125 L 612.28125 344.578125 C 614.859375 350.808594 617.429688 357.054688 620 363.296875 C 627.4375 381.320312 634.875 399.34375 642.300781 417.367188 C 650.90625 438.226562 659.507812 459.070312 668.113281 479.925781 C 675.214844 497.152344 682.328125 514.378906 689.445312 531.617188 C 691.597656 536.847656 693.753906 542.070312 695.910156 547.296875 " fill-opacity="1" fill-rule="nonzero"/><path fill="#f0d2c2" d="M 756.703125 547.296875 L 750.359375 547.296875 C 747.699219 540.875 745.058594 534.453125 742.414062 528.035156 C 734.976562 510.011719 727.539062 491.984375 720.113281 473.949219 C 711.507812 453.105469 702.902344 432.246094 694.300781 411.40625 C 687.199219 394.179688 680.082031 376.9375 672.96875 359.710938 C 670.890625 354.664062 668.808594 349.628906 666.730469 344.578125 L 673.074219 344.578125 C 675.65625 350.808594 678.226562 357.054688 680.792969 363.296875 C 688.230469 381.320312 695.671875 399.34375 703.109375 417.367188 C 711.699219 438.226562 720.304688 459.070312 728.910156 479.925781 C 736.023438 497.152344 743.125 514.378906 750.238281 531.617188 C 752.394531 536.847656 754.546875 542.070312 756.703125 547.296875 " fill-opacity="1" fill-rule="nonzero"/><path fill="#ff624a" d="M 750.363281 547.296875 L 695.914062 547.296875 L 612.277344 344.574219 L 666.722656 344.574219 L 750.363281 547.296875 " fill-opacity="1" fill-rule="nonzero"/><path fill="#ff624a" d="M 779.632812 462.746094 L 762.964844 422.324219 L 560 422.324219 L 576.640625 462.746094 L 779.632812 462.746094 " fill-opacity="1" fill-rule="nonzero"/><path fill="#2d2745" d="M 604.234375 583.125 C 600.808594 569.441406 602.238281 554.726562 608.359375 542.003906 C 610 538.597656 604.910156 535.597656 603.261719 539.023438 C 596.433594 553.214844 594.714844 569.402344 598.542969 584.691406 C 599.460938 588.375 605.160156 586.816406 604.234375 583.125 " fill-opacity="1" fill-rule="nonzero"/><path fill="#2d2745" d="M 582.132812 529.171875 C 578.765625 515.734375 580.171875 501.277344 586.183594 488.78125 C 587.824219 485.371094 582.734375 482.371094 581.085938 485.800781 C 574.367188 499.765625 572.671875 515.691406 576.4375 530.742188 C 577.363281 534.425781 583.054688 532.867188 582.132812 529.171875 " fill-opacity="1" fill-rule="nonzero"/><path fill="#2d2745" d="M 546.714844 442.871094 C 543.351562 429.433594 544.757812 414.980469 550.765625 402.480469 C 552.40625 399.070312 547.316406 396.074219 545.667969 399.5 C 538.949219 413.46875 537.257812 429.394531 541.023438 444.441406 C 541.945312 448.125 547.640625 446.566406 546.714844 442.871094 " fill-opacity="1" fill-rule="nonzero"/></svg>