<svg width="780" height="176" viewBox="0 0 780 176" fill="none" xmlns="http://www.w3.org/2000/svg">
<g clip-path="url(#clip0_1_9)">
<path fill-rule="evenodd" clip-rule="evenodd" d="M81.6088 99.6182C74.8049 95.0509 68.6973 89.7918 61.5664 85.5533C62.7108 87.8854 64.1075 89.701 65.2096 91.9261C66.3338 94.1976 67.1432 96.5478 67.8415 99.4145C69.212 105.041 68.9678 111.928 67.1331 117.219C63.7644 126.939 56.9322 134.427 47.3934 138.163C42.182 140.203 35.9936 140.974 29.882 140.187C24.0045 139.432 19.3622 137.209 15.3053 134.421C7.13898 128.803 2.43618 120.653 0.728633 108.418C-1.06166 95.5896 0.585328 82.6504 4.06904 72.7049C11.1616 52.465 24.0953 38.6261 41.7258 28.9973C50.5098 24.2001 61.304 20.6859 73.8139 20.0948C91.9994 19.2374 106.08 24.3453 117.645 31.0207C129.19 37.686 138.565 47.0646 145.177 58.2366C151.527 68.9668 157.12 84.1775 155.806 101.944C154.64 117.708 150.005 130.062 142.951 140.391C142.505 141.042 141.871 142.138 141.433 142.21C140.428 142.378 138.503 140.383 137.485 139.68C128.786 133.685 119.683 127.328 111.37 121.064C101.421 113.57 91.1658 107.286 81.6088 99.6182Z" fill="black"/>
<path fill-rule="evenodd" clip-rule="evenodd" d="M13.8884 141.097C17.3095 143.096 20.8679 145.047 25.3265 146.156C29.6135 147.223 34.3971 147.824 39.9032 147.673C50.1929 147.391 61.1143 147.669 72.397 147.673C94.0238 147.681 115.974 147.74 136.777 147.776C136.557 149.079 135.368 150.092 134.45 151.012C133.479 151.98 132.458 152.938 131.515 153.844C117.025 167.225 96.353 177.919 67.3389 174.282C55.0692 172.743 45.0016 168.375 35.8584 162.646C29.2321 158.492 23.6472 153.596 18.5488 147.57C16.8372 145.547 14.8935 143.39 13.8924 141.397C13.8884 141.3 13.8884 141.2 13.8884 141.097Z" fill="black"/>
</g>
<path d="M271.248 141H253.328L212.752 79.688V141H194.832V51.528H212.752L253.328 112.968V51.528H271.248V141ZM316.733 68.936C322.024 68.936 326.674 70.0027 330.685 72.136C334.696 74.184 337.853 76.872 340.157 80.2V70.088H358.205V141.512C358.205 148.083 356.882 153.928 354.237 159.048C351.592 164.253 347.624 168.349 342.333 171.336C337.042 174.408 330.642 175.944 323.133 175.944C313.064 175.944 304.786 173.597 298.301 168.904C291.901 164.211 288.274 157.811 287.421 149.704H305.213C306.152 152.947 308.157 155.507 311.229 157.384C314.386 159.347 318.184 160.328 322.621 160.328C327.826 160.328 332.05 158.749 335.293 155.592C338.536 152.52 340.157 147.827 340.157 141.512V130.504C337.853 133.832 334.653 136.605 330.557 138.824C326.546 141.043 321.938 142.152 316.733 142.152C310.76 142.152 305.298 140.616 300.349 137.544C295.4 134.472 291.474 130.163 288.573 124.616C285.757 118.984 284.349 112.541 284.349 105.288C284.349 98.12 285.757 91.7627 288.573 86.216C291.474 80.6693 295.357 76.4027 300.221 73.416C305.17 70.4293 310.674 68.936 316.733 68.936ZM340.157 105.544C340.157 101.192 339.304 97.48 337.597 94.408C335.89 91.2507 333.586 88.8613 330.685 87.24C327.784 85.5333 324.669 84.68 321.341 84.68C318.013 84.68 314.941 85.4907 312.125 87.112C309.309 88.7333 307.005 91.1227 305.213 94.28C303.506 97.352 302.653 101.021 302.653 105.288C302.653 109.555 303.506 113.309 305.213 116.552C307.005 119.709 309.309 122.141 312.125 123.848C315.026 125.555 318.098 126.408 321.341 126.408C324.669 126.408 327.784 125.597 330.685 123.976C333.586 122.269 335.89 119.88 337.597 116.808C339.304 113.651 340.157 109.896 340.157 105.544ZM371.099 105.288C371.099 98.12 372.507 91.7627 375.323 86.216C378.224 80.6693 382.107 76.4027 386.971 73.416C391.92 70.4293 397.424 68.936 403.483 68.936C408.774 68.936 413.382 70.0027 417.307 72.136C421.318 74.2693 424.518 76.9573 426.907 80.2V70.088H444.955V141H426.907V130.632C424.603 133.96 421.403 136.733 417.307 138.952C413.296 141.085 408.646 142.152 403.355 142.152C397.382 142.152 391.92 140.616 386.971 137.544C382.107 134.472 378.224 130.163 375.323 124.616C372.507 118.984 371.099 112.541 371.099 105.288ZM426.907 105.544C426.907 101.192 426.054 97.48 424.347 94.408C422.64 91.2507 420.336 88.8613 417.435 87.24C414.534 85.5333 411.419 84.68 408.091 84.68C404.763 84.68 401.691 85.4907 398.875 87.112C396.059 88.7333 393.755 91.1227 391.963 94.28C390.256 97.352 389.403 101.021 389.403 105.288C389.403 109.555 390.256 113.309 391.963 116.552C393.755 119.709 396.059 122.141 398.875 123.848C401.776 125.555 404.848 126.408 408.091 126.408C411.419 126.408 414.534 125.597 417.435 123.976C420.336 122.269 422.64 119.88 424.347 116.808C426.054 113.651 426.907 109.896 426.907 105.544ZM550.521 69.064C559.225 69.064 566.222 71.752 571.513 77.128C576.889 82.4187 579.577 89.8427 579.577 99.4V141H561.657V101.832C561.657 96.2853 560.249 92.0613 557.433 89.16C554.617 86.1733 550.777 84.68 545.913 84.68C541.049 84.68 537.166 86.1733 534.265 89.16C531.449 92.0613 530.041 96.2853 530.041 101.832V141H512.121V101.832C512.121 96.2853 510.713 92.0613 507.897 89.16C505.081 86.1733 501.241 84.68 496.377 84.68C491.428 84.68 487.502 86.1733 484.601 89.16C481.785 92.0613 480.377 96.2853 480.377 101.832V141H462.457V70.088H480.377V78.664C482.681 75.6773 485.625 73.3307 489.209 71.624C492.878 69.9173 496.889 69.064 501.241 69.064C506.788 69.064 511.737 70.2587 516.089 72.648C520.441 74.952 523.812 78.28 526.201 82.632C528.505 78.536 531.833 75.2507 536.185 72.776C540.622 70.3013 545.401 69.064 550.521 69.064ZM614.502 80.456C616.806 77.0427 619.963 74.2693 623.974 72.136C628.07 70.0027 632.721 68.936 637.926 68.936C643.985 68.936 649.446 70.4293 654.31 73.416C659.259 76.4027 663.142 80.6693 665.958 86.216C668.859 91.6773 670.31 98.0347 670.31 105.288C670.31 112.541 668.859 118.984 665.958 124.616C663.142 130.163 659.259 134.472 654.31 137.544C649.446 140.616 643.985 142.152 637.926 142.152C632.635 142.152 627.985 141.128 623.974 139.08C620.049 136.947 616.891 134.216 614.502 130.888V141H596.582V46.28H614.502V80.456ZM652.006 105.288C652.006 101.021 651.11 97.352 649.318 94.28C647.611 91.1227 645.307 88.7333 642.406 87.112C639.59 85.4907 636.518 84.68 633.19 84.68C629.947 84.68 626.875 85.5333 623.974 87.24C621.158 88.8613 618.854 91.2507 617.062 94.408C615.355 97.5653 614.502 101.277 614.502 105.544C614.502 109.811 615.355 113.523 617.062 116.68C618.854 119.837 621.158 122.269 623.974 123.976C626.875 125.597 629.947 126.408 633.19 126.408C636.518 126.408 639.59 125.555 642.406 123.848C645.307 122.141 647.611 119.709 649.318 116.552C651.11 113.395 652.006 109.64 652.006 105.288ZM692.42 61.64C689.263 61.64 686.617 60.6587 684.484 58.696C682.436 56.648 681.412 54.1307 681.412 51.144C681.412 48.1573 682.436 45.6827 684.484 43.72C686.617 41.672 689.263 40.648 692.42 40.648C695.577 40.648 698.18 41.672 700.228 43.72C702.361 45.6827 703.428 48.1573 703.428 51.144C703.428 54.1307 702.361 56.648 700.228 58.696C698.18 60.6587 695.577 61.64 692.42 61.64ZM701.252 70.088V141H683.332V70.088H701.252ZM746.093 142.152C740.29 142.152 735.085 141.128 730.477 139.08C725.869 136.947 722.2 134.088 719.469 130.504C716.824 126.92 715.373 122.952 715.117 118.6H733.165C733.506 121.331 734.829 123.592 737.133 125.384C739.522 127.176 742.466 128.072 745.965 128.072C749.378 128.072 752.024 127.389 753.901 126.024C755.864 124.659 756.845 122.909 756.845 120.776C756.845 118.472 755.65 116.765 753.261 115.656C750.957 114.461 747.245 113.181 742.125 111.816C736.834 110.536 732.482 109.213 729.069 107.848C725.741 106.483 722.84 104.392 720.365 101.576C717.976 98.76 716.781 94.9627 716.781 90.184C716.781 86.2587 717.89 82.6747 720.109 79.432C722.413 76.1893 725.656 73.6293 729.837 71.752C734.104 69.8747 739.096 68.936 744.813 68.936C753.261 68.936 760.002 71.0693 765.037 75.336C770.072 79.5173 772.845 85.192 773.357 92.36H756.205C755.949 89.544 754.754 87.3253 752.621 85.704C750.573 83.9973 747.8 83.144 744.301 83.144C741.058 83.144 738.541 83.7413 736.749 84.936C735.042 86.1307 734.189 87.7947 734.189 89.928C734.189 92.3173 735.384 94.152 737.773 95.432C740.162 96.6267 743.874 97.864 748.909 99.144C754.029 100.424 758.253 101.747 761.581 103.112C764.909 104.477 767.768 106.611 770.157 109.512C772.632 112.328 773.912 116.083 773.997 120.776C773.997 124.872 772.845 128.541 770.541 131.784C768.322 135.027 765.08 137.587 760.813 139.464C756.632 141.256 751.725 142.152 746.093 142.152Z" fill="black"/>
<defs>
<clipPath id="clip0_1_9">
<rect width="156" height="155" fill="white" transform="translate(0 20)"/>
</clipPath>
</defs>
</svg>
